Griffith_Gothic-Thin.ufo
<glyph name="quotedbl" format="1">
  <advance width="300"/>
  <unicode hex="0022"/>
  <outline>
    <contour>
      <point x="239" y="720" type="line"/>
      <point x="228" y="525" type="line"/>
      <point x="202" y="525" type="line"/>
      <point x="191" y="720" type="line"/>
    </contour>
    <contour>
      <point x="109" y="720" type="line"/>
      <point x="98" y="525" type="line"/>
      <point x="72" y="525" type="line"/>
      <point x="61" y="720" type="line"/>
    </contour>
  </outline>
</glyph>
<glyph name="quotesingle" format="1">
  <advance width="170"/>
  <unicode hex="0027"/>
  <outline>
    <contour>
      <point x="109" y="720" type="line"/>
      <point x="98" y="525" type="line"/>
      <point x="72" y="525" type="line"/>
      <point x="61" y="720" type="line"/>
    </contour>
  </outline>
</glyph>
<glyph name="plus" format="1">
  <advance width="600"/>
  <unicode hex="002B"/>
  <outline>
    <contour>
      <point x="552" y="336" type="line"/>
      <point x="320" y="336" type="line"/>
      <point x="320" y="103" type="line"/>
      <point x="280" y="103" type="line"/>
      <point x="280" y="336" type="line"/>
      <point x="48" y="336" type="line"/>
      <point x="48" y="374" type="line"/>
      <point x="280" y="374" type="line"/>
      <point x="280" y="607" type="line"/>
      <point x="320" y="607" type="line"/>
      <point x="320" y="374" type="line"/>
      <point x="552" y="374" type="line"/>
    </contour>
  </outline>
</glyph>
<glyph name="slash" format="1">
  <advance width="360"/>
  <unicode hex="002F"/>
  <outline>
    <contour>
      <point x="342" y="735" type="line"/>
      <point x="31" y="-95" type="line"/>
      <point x="-11" y="-95" type="line"/>
      <point x="300" y="735" type="line"/>
    </contour>
  </outline>
</glyph>
<glyph name="zero" format="1">
  <advance width="588"/>
  <unicode hex="0030"/>
  <outline>
    <contour>
      <point x="531" y="360" type="line" smooth="yes"/>
      <point x="531" y="137"/>
      <point x="443" y="-12"/>
      <point x="294" y="-12" type="curve" smooth="yes"/>
      <point x="145" y="-12"/>
      <point x="57" y="135"/>
      <point x="57" y="358" type="curve" smooth="yes"/>
      <point x="57" y="360" type="line" smooth="yes"/>
      <point x="57" y="583"/>
      <point x="145" y="732"/>
      <point x="294" y="732" type="curve" smooth="yes"/>
      <point x="443" y="732"/>
      <point x="531" y="585"/>
      <point x="531" y="362" type="curve" smooth="yes"/>
    </contour>
    <contour>
      <point x="487" y="358" type="curve" smooth="yes"/>
      <point x="487" y="360" type="line" smooth="yes"/>
      <point x="487" y="548"/>
      <point x="423" y="696"/>
      <point x="294" y="696" type="curve" smooth="yes"/>
      <point x="165" y="696"/>
      <point x="101" y="550"/>
      <point x="101" y="362" type="curve" smooth="yes"/>
      <point x="101" y="360" type="line" smooth="yes"/>
      <point x="101" y="171"/>
      <point x="165" y="24"/>
      <point x="294" y="24" type="curve" smooth="yes"/>
      <point x="423" y="24"/>
      <point x="487" y="169"/>
    </contour>
  </outline>
</glyph>
<glyph name="two" format="1">
  <advance width="550"/>
  <unicode hex="0032"/>
  <outline>
    <contour>
      <point x="486" y="0" type="line"/>
      <point x="65" y="0" type="line"/>
      <point x="65" y="31" type="line"/>
      <point x="103" y="152"/>
      <point x="166" y="226"/>
      <point x="297" y="325" type="curve" smooth="yes"/>
      <point x="386" y="392"/>
      <point x="433" y="444"/>
      <point x="433" y="536" type="curve" smooth="yes"/>
      <point x="433" y="627"/>
      <point x="381" y="696"/>
      <point x="280" y="696" type="curve" smooth="yes"/>
      <point x="194" y="696"/>
      <point x="142" y="649"/>
      <point x="95" y="554" type="curve"/>
      <point x="62" y="571" type="line"/>
      <point x="109" y="670"/>
      <point x="180" y="732"/>
      <point x="282" y="732" type="curve" smooth="yes"/>
      <point x="413" y="732"/>
      <point x="477" y="643"/>
      <point x="477" y="538" type="curve" smooth="yes"/>
      <point x="477" y="429"/>
      <point x="419" y="370"/>
      <point x="315" y="293" type="curve" smooth="yes"/>
      <point x="200" y="208"/>
      <point x="136" y="134"/>
      <point x="110" y="36" type="curve"/>
      <point x="486" y="36" type="line"/>
    </contour>
  </outline>
</glyph>
<glyph name="three" format="1">
  <advance width="510"/>
  <unicode hex="0033"/>
  <outline>
    <contour>
      <point x="464" y="253" type="curve" smooth="yes"/>
      <point x="464" y="88"/>
      <point x="251" y="-8"/>
      <point x="20" y="-6" type="curve"/>
      <point x="20" y="30" type="line"/>
      <point x="244" y="30"/>
      <point x="420" y="109"/>
      <point x="420" y="251" type="curve" smooth="yes"/>
      <point x="420" y="334"/>
      <point x="367" y="374"/>
      <point x="284" y="374" type="curve" smooth="yes"/>
      <point x="239" y="374"/>
      <point x="213" y="368"/>
      <point x="182" y="358" type="curve"/>
      <point x="170" y="392" type="line"/>
      <point x="307" y="446"/>
      <point x="380" y="494"/>
      <point x="380" y="582" type="curve" smooth="yes"/>
      <point x="380" y="651"/>
      <point x="336" y="696"/>
      <point x="259" y="696" type="curve" smooth="yes"/>
      <point x="193" y="696"/>
      <point x="134" y="659"/>
      <point x="80" y="599" type="curve"/>
      <point x="55" y="626" type="line"/>
      <point x="107" y="683"/>
      <point x="174" y="732"/>
      <point x="261" y="732" type="curve" smooth="yes"/>
      <point x="365" y="732"/>
      <point x="424" y="672"/>
      <point x="424" y="587" type="curve" smooth="yes"/>
      <point x="424" y="501"/>
      <point x="360" y="447"/>
      <point x="257" y="403" type="curve"/>
      <point x="259" y="399" type="line"/>
      <point x="371" y="417"/>
      <point x="464" y="368"/>
    </contour>
  </outline>
</glyph>
<glyph name="four" format="1">
  <advance width="560"/>
  <unicode hex="0034"/>
  <outline>
    <contour>
      <point x="518" y="211" type="line"/>
      <point x="423" y="211" type="line"/>
      <point x="423" y="0" type="line"/>
      <point x="381" y="0" type="line"/>
      <point x="381" y="211" type="line"/>
      <point x="43" y="211" type="line"/>
      <point x="43" y="263" type="line"/>
      <point x="351" y="720" type="line"/>
      <point x="423" y="720" type="line"/>
      <point x="423" y="245" type="line"/>
      <point x="518" y="245" type="line"/>
    </contour>
    <contour>
      <point x="381" y="245" type="line"/>
      <point x="381" y="681" type="line"/>
      <point x="367" y="681" type="line"/>
      <point x="82" y="259" type="line"/>
      <point x="82" y="245" type="line"/>
    </contour>
  </outline>
</glyph>
<glyph name="five" format="1">
  <advance width="530"/>
  <unicode hex="0035"/>
  <outline>
    <contour>
      <point x="482" y="242" type="line" smooth="yes"/>
      <point x="482" y="78"/>
      <point x="355" y="-10"/>
      <point x="219" y="-10" type="curve" smooth="yes"/>
      <point x="146" y="-10"/>
      <point x="101" y="0"/>
      <point x="44" y="26" type="curve"/>
      <point x="56" y="63" type="line"/>
      <point x="115" y="34"/>
      <point x="157" y="26"/>
      <point x="221" y="26" type="curve" smooth="yes"/>
      <point x="353" y="26"/>
      <point x="438" y="108"/>
      <point x="438" y="240" type="curve" smooth="yes"/>
      <point x="438" y="242" type="line" smooth="yes"/>
      <point x="438" y="355"/>
      <point x="381" y="417"/>
      <point x="280" y="417" type="curve" smooth="yes"/>
      <point x="219" y="417"/>
      <point x="178" y="391"/>
      <point x="138" y="353" type="curve"/>
      <point x="78" y="353" type="line"/>
      <point x="119" y="720" type="line"/>
      <point x="443" y="720" type="line"/>
      <point x="443" y="684" type="line"/>
      <point x="155" y="684" type="line"/>
      <point x="122" y="386" type="line"/>
      <point x="131" y="386" type="line"/>
      <point x="173" y="427"/>
      <point x="215" y="453"/>
      <point x="287" y="453" type="curve" smooth="yes"/>
      <point x="403" y="453"/>
      <point x="482" y="378"/>
      <point x="482" y="244" type="curve" smooth="yes"/>
    </contour>
  </outline>
</glyph>
<glyph name="seven" format="1">
  <advance width="480"/>
  <unicode hex="0037"/>
  <outline>
    <contour>
      <point x="462" y="689" type="line"/>
      <point x="331" y="508"/>
      <point x="202" y="221"/>
      <point x="157" y="0" type="curve"/>
      <point x="113" y="0" type="line"/>
      <point x="152" y="193"/>
      <point x="282" y="493"/>
      <point x="418" y="684" type="curve"/>
      <point x="21" y="684" type="line"/>
      <point x="21" y="720" type="line"/>
      <point x="462" y="720" type="line"/>
    </contour>
  </outline>
</glyph>
<glyph name="nine" format="1">
  <advance width="545"/>
  <unicode hex="0039"/>
  <outline>
    <contour>
      <point x="493" y="477" type="curve" smooth="yes"/>
      <point x="493" y="310"/>
      <point x="410" y="134"/>
      <point x="265" y="0" type="curve"/>
      <point x="208" y="0" type="line"/>
      <point x="339" y="113"/>
      <point x="424" y="259"/>
      <point x="443" y="378" type="curve"/>
      <point x="436" y="378" type="line"/>
      <point x="389" y="316"/>
      <point x="333" y="278"/>
      <point x="248" y="278" type="curve" smooth="yes"/>
      <point x="128" y="278"/>
      <point x="33" y="362"/>
      <point x="33" y="500" type="curve" smooth="yes"/>
      <point x="33" y="638"/>
      <point x="141" y="732"/>
      <point x="266" y="732" type="curve" smooth="yes"/>
      <point x="393" y="732"/>
      <point x="493" y="643"/>
    </contour>
    <contour>
      <point x="449" y="503" type="curve" smooth="yes"/>
      <point x="449" y="619"/>
      <point x="368" y="696"/>
      <point x="264" y="696" type="curve" smooth="yes"/>
      <point x="160" y="696"/>
      <point x="77" y="621"/>
      <point x="77" y="502" type="curve" smooth="yes"/>
      <point x="77" y="386"/>
      <point x="147" y="314"/>
      <point x="255" y="314" type="curve" smooth="yes"/>
      <point x="366" y="314"/>
      <point x="449" y="397"/>
    </contour>
  </outline>
</glyph>
<glyph name="colon" format="1">
  <advance width="190"/>
  <unicode hex="003A"/>
  <outline>
    <contour>
      <point x="133" y="478" type="curve" smooth="yes"/>
      <point x="133" y="456"/>
      <point x="117" y="440"/>
      <point x="95" y="440" type="curve" smooth="yes"/>
      <point x="73" y="440"/>
      <point x="57" y="456"/>
      <point x="57" y="478" type="curve" smooth="yes"/>
      <point x="57" y="500"/>
      <point x="73" y="516"/>
      <point x="95" y="516" type="curve" smooth="yes"/>
      <point x="117" y="516"/>
      <point x="133" y="500"/>
    </contour>
    <contour>
      <point x="133" y="31" type="curve" smooth="yes"/>
      <point x="133" y="9"/>
      <point x="117" y="-7"/>
      <point x="95" y="-7" type="curve" smooth="yes"/>
      <point x="73" y="-7"/>
      <point x="57" y="9"/>
      <point x="57" y="31" type="curve" smooth="yes"/>
      <point x="57" y="53"/>
      <point x="73" y="69"/>
      <point x="95" y="69" type="curve" smooth="yes"/>
      <point x="117" y="69"/>
      <point x="133" y="53"/>
    </contour>
  </outline>
</glyph>
<glyph name="semicolon" format="1">
  <advance width="190"/>
  <unicode hex="003B"/>
  <outline>
    <contour>
      <point x="133" y="478" type="curve" smooth="yes"/>
      <point x="133" y="456"/>
      <point x="117" y="440"/>
      <point x="95" y="440" type="curve" smooth="yes"/>
      <point x="73" y="440"/>
      <point x="57" y="456"/>
      <point x="57" y="478" type="curve" smooth="yes"/>
      <point x="57" y="500"/>
      <point x="73" y="516"/>
      <point x="95" y="516" type="curve" smooth="yes"/>
      <point x="117" y="516"/>
      <point x="133" y="500"/>
    </contour>
    <contour>
      <point x="120" y="75" type="line"/>
      <point x="62" y="-120" type="line"/>
      <point x="33" y="-120" type="line"/>
      <point x="68" y="75" type="line"/>
    </contour>
  </outline>
</glyph>
<glyph name="C" format="1">
  <advance width="570"/>
  <unicode hex="0043"/>
  <outline>
    <contour>
      <point x="526" y="200" type="line"/>
      <point x="496" y="78"/>
      <point x="429" y="-12"/>
      <point x="304" y="-12" type="curve" smooth="yes"/>
      <point x="148" y="-12"/>
      <point x="57" y="135"/>
      <point x="57" y="358" type="curve" smooth="yes"/>
      <point x="57" y="360" type="line" smooth="yes"/>
      <point x="57" y="583"/>
      <point x="147" y="732"/>
      <point x="306" y="732" type="curve" smooth="yes"/>
      <point x="419" y="732"/>
      <point x="491" y="658"/>
      <point x="521" y="537" type="curve"/>
      <point x="482" y="523" type="line"/>
      <point x="453" y="633"/>
      <point x="399" y="696"/>
      <point x="306" y="696" type="curve" smooth="yes"/>
      <point x="168" y="696"/>
      <point x="101" y="554"/>
      <point x="101" y="362" type="curve" smooth="yes"/>
      <point x="101" y="360" type="line" smooth="yes"/>
      <point x="101" y="167"/>
      <point x="168" y="24"/>
      <point x="306" y="24" type="curve" smooth="yes"/>
      <point x="405" y="24"/>
      <point x="461" y="101"/>
      <point x="487" y="212" type="curve"/>
    </contour>
  </outline>
</glyph>
<glyph name="E" format="1">
  <advance width="554"/>
  <unicode hex="0045"/>
  <outline>
    <contour>
      <point x="512" y="0" type="line"/>
      <point x="92" y="0" type="line"/>
      <point x="92" y="720" type="line"/>
      <point x="500" y="720" type="line"/>
      <point x="500" y="684" type="line"/>
      <point x="136" y="684" type="line"/>
      <point x="136" y="396" type="line"/>
      <point x="447" y="396" type="line"/>
      <point x="447" y="360" type="line"/>
      <point x="136" y="360" type="line"/>
      <point x="136" y="36" type="line"/>
      <point x="512" y="36" type="line"/>
    </contour>
  </outline>
</glyph>
<glyph name="G" format="1">
  <advance width="608"/>
  <unicode hex="0047"/>
  <outline>
    <contour>
      <point x="546" y="0" type="line"/>
      <point x="512" y="0" type="line"/>
      <point x="512" y="230" type="line"/>
      <point x="507" y="230" type="line"/>
      <point x="479" y="83"/>
      <point x="423" y="-12"/>
      <point x="296" y="-12" type="curve" smooth="yes"/>
      <point x="150" y="-12"/>
      <point x="57" y="135"/>
      <point x="57" y="358" type="curve" smooth="yes"/>
      <point x="57" y="360" type="line" smooth="yes"/>
      <point x="57" y="583"/>
      <point x="148" y="732"/>
      <point x="301" y="732" type="curve" smooth="yes"/>
      <point x="410" y="732"/>
      <point x="480" y="662"/>
      <point x="516" y="555" type="curve"/>
      <point x="477" y="539" type="line"/>
      <point x="446" y="634"/>
      <point x="391" y="696"/>
      <point x="301" y="696" type="curve" smooth="yes"/>
      <point x="169" y="696"/>
      <point x="101" y="554"/>
      <point x="101" y="362" type="curve" smooth="yes"/>
      <point x="101" y="360" type="line" smooth="yes"/>
      <point x="101" y="167"/>
      <point x="173" y="24"/>
      <point x="299" y="24" type="curve" smooth="yes"/>
      <point x="413" y="24"/>
      <point x="471" y="125"/>
      <point x="489" y="294" type="curve"/>
      <point x="312" y="294" type="line"/>
      <point x="312" y="330" type="line"/>
      <point x="546" y="330" type="line"/>
    </contour>
  </outline>
</glyph>
<glyph name="H" format="1">
  <advance width="620"/>
  <unicode hex="0048"/>
  <outline>
    <contour>
      <point x="528" y="0" type="line"/>
      <point x="484" y="0" type="line"/>
      <point x="484" y="360" type="line"/>
      <point x="136" y="360" type="line"/>
      <point x="136" y="0" type="line"/>
      <point x="92" y="0" type="line"/>
      <point x="92" y="720" type="line"/>
      <point x="136" y="720" type="line"/>
      <point x="136" y="396" type="line"/>
      <point x="484" y="396" type="line"/>
      <point x="484" y="720" type="line"/>
      <point x="528" y="720" type="line"/>
    </contour>
  </outline>
</glyph>
<glyph name="K" format="1">
  <advance width="573"/>
  <unicode hex="004B"/>
  <outline>
    <contour>
      <point x="574" y="0" type="line"/>
      <point x="518" y="0" type="line"/>
      <point x="173" y="389" type="line"/>
      <point x="173" y="391" type="line"/>
      <point x="503" y="720" type="line"/>
      <point x="557" y="720" type="line"/>
      <point x="226" y="391" type="line"/>
    </contour>
    <contour>
      <point x="136" y="0" type="line"/>
      <point x="92" y="0" type="line"/>
      <point x="92" y="720" type="line"/>
      <point x="136" y="720" type="line"/>
    </contour>
  </outline>
</glyph>
<glyph name="L" format="1">
  <advance width="504"/>
  <unicode hex="004C"/>
  <outline>
    <contour>
      <point x="487" y="0" type="line"/>
      <point x="92" y="0" type="line"/>
      <point x="92" y="720" type="line"/>
      <point x="136" y="720" type="line"/>
      <point x="136" y="36" type="line"/>
      <point x="487" y="36" type="line"/>
    </contour>
  </outline>
</glyph>
<glyph name="N" format="1">
  <advance width="640"/>
  <unicode hex="004E"/>
  <outline>
    <contour>
      <point x="548" y="0" type="line"/>
      <point x="477" y="0" type="line"/>
      <point x="142" y="677" type="line"/>
      <point x="134" y="677" type="line"/>
      <point x="134" y="0" type="line"/>
      <point x="92" y="0" type="line"/>
      <point x="92" y="720" type="line"/>
      <point x="167" y="720" type="line"/>
      <point x="498" y="51" type="line"/>
      <point x="506" y="51" type="line"/>
      <point x="506" y="720" type="line"/>
      <point x="548" y="720" type="line"/>
    </contour>
  </outline>
</glyph>
<glyph name="O" format="1">
  <advance width="608"/>
  <unicode hex="004F"/>
  <outline>
    <contour>
      <point x="551" y="360" type="line" smooth="yes"/>
      <point x="551" y="137"/>
      <point x="461" y="-12"/>
      <point x="304" y="-12" type="curve" smooth="yes"/>
      <point x="147" y="-12"/>
      <point x="57" y="135"/>
      <point x="57" y="358" type="curve" smooth="yes"/>
      <point x="57" y="360" type="line" smooth="yes"/>
      <point x="57" y="583"/>
      <point x="147" y="732"/>
      <point x="304" y="732" type="curve" smooth="yes"/>
      <point x="461" y="732"/>
      <point x="551" y="585"/>
      <point x="551" y="362" type="curve" smooth="yes"/>
    </contour>
    <contour>
      <point x="507" y="358" type="curve" smooth="yes"/>
      <point x="507" y="360" type="line" smooth="yes"/>
      <point x="507" y="552"/>
      <point x="440" y="696"/>
      <point x="304" y="696" type="curve" smooth="yes"/>
      <point x="168" y="696"/>
      <point x="101" y="554"/>
      <point x="101" y="362" type="curve" smooth="yes"/>
      <point x="101" y="360" type="line" smooth="yes"/>
      <point x="101" y="167"/>
      <point x="168" y="24"/>
      <point x="304" y="24" type="curve" smooth="yes"/>
      <point x="440" y="24"/>
      <point x="507" y="165"/>
    </contour>
  </outline>
</glyph>
<glyph name="R" format="1">
  <advance width="591"/>
  <unicode hex="0052"/>
  <outline>
    <contour>
      <point x="546" y="0" type="line"/>
      <point x="495" y="0" type="line"/>
      <point x="277" y="330" type="line"/>
      <point x="136" y="330" type="line"/>
      <point x="136" y="0" type="line"/>
      <point x="92" y="0" type="line"/>
      <point x="92" y="720" type="line"/>
      <point x="303" y="720" type="line" smooth="yes"/>
      <point x="447" y="720"/>
      <point x="529" y="655"/>
      <point x="529" y="526" type="curve" smooth="yes"/>
      <point x="529" y="406"/>
      <point x="457" y="339"/>
      <point x="326" y="331" type="curve"/>
    </contour>
    <contour>
      <point x="485" y="524" type="curve" smooth="yes"/>
      <point x="485" y="631"/>
      <point x="422" y="684"/>
      <point x="298" y="684" type="curve" smooth="yes"/>
      <point x="136" y="684" type="line"/>
      <point x="136" y="366" type="line"/>
      <point x="303" y="366" type="line" smooth="yes"/>
      <point x="420" y="366"/>
      <point x="485" y="413"/>
    </contour>
  </outline>
</glyph>
<glyph name="U" format="1">
  <advance width="622"/>
  <unicode hex="0055"/>
  <outline>
    <contour>
      <point x="535" y="242" type="line" smooth="yes"/>
      <point x="535" y="62"/>
      <point x="437" y="-12"/>
      <point x="311" y="-12" type="curve" smooth="yes"/>
      <point x="185" y="-12"/>
      <point x="87" y="62"/>
      <point x="87" y="242" type="curve" smooth="yes"/>
      <point x="87" y="720" type="line"/>
      <point x="131" y="720" type="line"/>
      <point x="131" y="244" type="line" smooth="yes"/>
      <point x="131" y="88"/>
      <point x="206" y="24"/>
      <point x="313" y="24" type="curve" smooth="yes"/>
      <point x="420" y="24"/>
      <point x="495" y="84"/>
      <point x="495" y="240" type="curve" smooth="yes"/>
      <point x="495" y="720" type="line"/>
      <point x="535" y="720" type="line"/>
    </contour>
  </outline>
</glyph>
<glyph name="V" format="1">
  <advance width="602"/>
  <unicode hex="0056"/>
  <outline>
    <contour>
      <point x="570" y="720" type="line"/>
      <point x="328" y="-8" type="line"/>
      <point x="274" y="-8" type="line"/>
      <point x="32" y="720" type="line"/>
      <point x="77" y="720" type="line"/>
      <point x="299" y="34" type="line"/>
      <point x="305" y="34" type="line"/>
      <point x="527" y="720" type="line"/>
    </contour>
  </outline>
</glyph>
<glyph name="W" format="1">
  <advance width="968"/>
  <unicode hex="0057"/>
  <outline>
    <contour>
      <point x="905" y="720" type="line"/>
      <point x="708" y="-6" type="line"/>
      <point x="653" y="-6" type="line"/>
      <point x="474" y="673" type="line"/>
      <point x="464" y="673" type="line"/>
      <point x="287" y="-6" type="line"/>
      <point x="232" y="-6" type="line"/>
      <point x="35" y="720" type="line"/>
      <point x="80" y="720" type="line"/>
      <point x="256" y="39" type="line"/>
      <point x="264" y="39" type="line"/>
      <point x="437" y="720" type="line"/>
      <point x="503" y="720" type="line"/>
      <point x="678" y="39" type="line"/>
      <point x="686" y="39" type="line"/>
      <point x="862" y="720" type="line"/>
    </contour>
  </outline>
</glyph>
<glyph name="X" format="1">
  <advance width="620"/>
  <unicode hex="0058"/>
  <outline>
    <contour>
      <point x="586" y="0" type="line"/>
      <point x="536" y="0" type="line"/>
      <point x="309" y="340" type="line"/>
      <point x="81" y="0" type="line"/>
      <point x="34" y="0" type="line"/>
      <point x="287" y="370" type="line"/>
      <point x="50" y="720" type="line"/>
      <point x="100" y="720" type="line"/>
      <point x="311" y="403" type="line"/>
      <point x="523" y="720" type="line"/>
      <point x="570" y="720" type="line"/>
      <point x="333" y="373" type="line"/>
    </contour>
  </outline>
</glyph>
<glyph name="Y" format="1">
  <advance width="608"/>
  <unicode hex="0059"/>
  <outline>
    <contour>
      <point x="588" y="720" type="line"/>
      <point x="326" y="276" type="line"/>
      <point x="326" y="0" type="line"/>
      <point x="282" y="0" type="line"/>
      <point x="282" y="276" type="line"/>
      <point x="20" y="720" type="line"/>
      <point x="69" y="720" type="line"/>
      <point x="305" y="310" type="line"/>
      <point x="541" y="720" type="line"/>
    </contour>
  </outline>
</glyph>
<glyph name="backslash" format="1">
  <advance width="360"/>
  <unicode hex="005C"/>
  <outline>
    <contour>
      <point x="371" y="-95" type="line"/>
      <point x="327" y="-95" type="line"/>
      <point x="18" y="735" type="line"/>
      <point x="62" y="735" type="line"/>
    </contour>
  </outline>
</glyph>
<glyph name="bracketright" format="1">
  <advance width="324"/>
  <unicode hex="005D"/>
  <outline>
    <contour>
      <point x="252" y="-87" type="line"/>
      <point x="26" y="-80" type="line"/>
      <point x="26" y="-48" type="line"/>
      <point x="211" y="-55" type="line"/>
      <point x="211" y="695" type="line"/>
      <point x="26" y="688" type="line"/>
      <point x="26" y="720" type="line"/>
      <point x="252" y="727" type="line"/>
    </contour>
  </outline>
</glyph>
<glyph name="asciicircum" format="1">
  <advance width="550"/>
  <unicode hex="005E"/>
  <outline>
    <contour>
      <point x="493" y="407" type="line"/>
      <point x="462" y="407" type="line"/>
      <point x="275" y="681" type="line"/>
      <point x="88" y="407" type="line"/>
      <point x="57" y="407" type="line"/>
      <point x="252" y="725" type="line"/>
      <point x="298" y="725" type="line"/>
    </contour>
  </outline>
</glyph>
<glyph name="underscore" format="1">
  <advance width="500"/>
  <unicode hex="005F"/>
  <outline>
    <contour>
      <point x="503" y="-81" type="line"/>
      <point x="-3" y="-81" type="line"/>
      <point x="-3" y="-48" type="line"/>
      <point x="503" y="-48" type="line"/>
    </contour>
  </outline>
</glyph>
<glyph name="a" format="1">
  <advance width="476"/>
  <unicode hex="0061"/>
  <outline>
    <contour>
      <point x="450" y="-4" type="line"/>
      <point x="395" y="-4"/>
      <point x="356" y="36"/>
      <point x="352" y="90" type="curve"/>
      <point x="346" y="90" type="line"/>
      <point x="294" y="22"/>
      <point x="239" y="-8"/>
      <point x="176" y="-8" type="curve" smooth="yes"/>
      <point x="99" y="-8"/>
      <point x="35" y="39"/>
      <point x="35" y="127" type="curve" smooth="yes"/>
      <point x="35" y="232"/>
      <point x="145" y="305"/>
      <point x="352" y="302" type="curve"/>
      <point x="352" y="366" type="line" smooth="yes"/>
      <point x="352" y="449"/>
      <point x="319" y="484"/>
      <point x="253" y="484" type="curve" smooth="yes"/>
      <point x="196" y="484"/>
      <point x="150" y="465"/>
      <point x="95" y="433" type="curve"/>
      <point x="80" y="464" type="line"/>
      <point x="132" y="493"/>
      <point x="185" y="517"/>
      <point x="260" y="517" type="curve" smooth="yes"/>
      <point x="351" y="517"/>
      <point x="392" y="470"/>
      <point x="392" y="369" type="curve" smooth="yes"/>
      <point x="392" y="101" type="line" smooth="yes"/>
      <point x="392" y="56"/>
      <point x="411" y="27"/>
      <point x="450" y="24" type="curve"/>
    </contour>
    <contour>
      <point x="352" y="129" type="curve"/>
      <point x="352" y="273" type="line"/>
      <point x="155" y="278"/>
      <point x="75" y="208"/>
      <point x="75" y="129" type="curve" smooth="yes"/>
      <point x="75" y="63"/>
      <point x="121" y="24"/>
      <point x="181" y="24" type="curve" smooth="yes"/>
      <point x="243" y="24"/>
      <point x="305" y="58"/>
    </contour>
  </outline>
</glyph>
<glyph name="c" format="1">
  <advance width="430"/>
  <unicode hex="0063"/>
  <outline>
    <contour>
      <point x="396" y="111" type="line"/>
      <point x="364" y="38"/>
      <point x="312" y="-10"/>
      <point x="235" y="-10" type="curve" smooth="yes"/>
      <point x="121" y="-10"/>
      <point x="46" y="98"/>
      <point x="46" y="254" type="curve" smooth="yes"/>
      <point x="46" y="256" type="line" smooth="yes"/>
      <point x="46" y="410"/>
      <point x="122" y="522"/>
      <point x="238" y="522" type="curve" smooth="yes"/>
      <point x="315" y="522"/>
      <point x="361" y="479"/>
      <point x="393" y="409" type="curve"/>
      <point x="361" y="394" type="line"/>
      <point x="332" y="453"/>
      <point x="299" y="490"/>
      <point x="236" y="490" type="curve" smooth="yes"/>
      <point x="143" y="490"/>
      <point x="86" y="393"/>
      <point x="86" y="258" type="curve" smooth="yes"/>
      <point x="86" y="256" type="line" smooth="yes"/>
      <point x="86" y="120"/>
      <point x="142" y="22"/>
      <point x="237" y="22" type="curve" smooth="yes"/>
      <point x="298" y="22"/>
      <point x="335" y="59"/>
      <point x="366" y="125" type="curve"/>
    </contour>
  </outline>
</glyph>
<glyph name="e" format="1">
  <advance width="445"/>
  <unicode hex="0065"/>
  <outline>
    <contour>
      <point x="404" y="251" type="line"/>
      <point x="86" y="251" type="line"/>
      <point x="87" y="104"/>
      <point x="148" y="22"/>
      <point x="243" y="22" type="curve" smooth="yes"/>
      <point x="297" y="22"/>
      <point x="336" y="46"/>
      <point x="373" y="87" type="curve"/>
      <point x="397" y="64" type="line"/>
      <point x="359" y="21"/>
      <point x="308" y="-10"/>
      <point x="241" y="-10" type="curve" smooth="yes"/>
      <point x="128" y="-10"/>
      <point x="46" y="85"/>
      <point x="46" y="254" type="curve" smooth="yes"/>
      <point x="46" y="256" type="line" smooth="yes"/>
      <point x="46" y="410"/>
      <point x="122" y="522"/>
      <point x="230" y="522" type="curve" smooth="yes"/>
      <point x="338" y="522"/>
      <point x="404" y="415"/>
      <point x="404" y="253" type="curve" smooth="yes"/>
    </contour>
    <contour>
      <point x="363" y="283" type="line"/>
      <point x="355" y="414"/>
      <point x="312" y="490"/>
      <point x="230" y="490" type="curve" smooth="yes"/>
      <point x="146" y="490"/>
      <point x="93" y="405"/>
      <point x="87" y="283" type="curve"/>
    </contour>
  </outline>
</glyph>
<glyph name="g" format="1">
  <advance width="502"/>
  <unicode hex="0067"/>
  <outline>
    <contour>
      <point x="426" y="15" type="line" smooth="yes"/>
      <point x="426" y="-134"/>
      <point x="346" y="-190"/>
      <point x="240" y="-190" type="curve" smooth="yes"/>
      <point x="170" y="-190"/>
      <point x="131" y="-179"/>
      <point x="98" y="-165" type="curve"/>
      <point x="98" y="-121" type="line"/>
      <point x="118" y="-121" type="line"/>
      <point x="137" y="-140"/>
      <point x="173" y="-161"/>
      <point x="246" y="-161" type="curve" smooth="yes"/>
      <point x="326" y="-161"/>
      <point x="386" y="-118"/>
      <point x="386" y="7" type="curve" smooth="yes"/>
      <point x="386" y="118" type="line"/>
      <point x="380" y="118" type="line"/>
      <point x="340" y="40"/>
      <point x="298" y="-10"/>
      <point x="221" y="-10" type="curve" smooth="yes"/>
      <point x="126" y="-10"/>
      <point x="46" y="79"/>
      <point x="46" y="254" type="curve" smooth="yes"/>
      <point x="46" y="256" type="line" smooth="yes"/>
      <point x="46" y="430"/>
      <point x="133" y="522"/>
      <point x="223" y="522" type="curve" smooth="yes"/>
      <point x="296" y="522"/>
      <point x="343" y="472"/>
      <point x="380" y="396" type="curve"/>
      <point x="386" y="396" type="line"/>
      <point x="386" y="521" type="line"/>
      <point x="426" y="499" type="line"/>
    </contour>
    <contour>
      <point x="389" y="256" type="curve" smooth="yes"/>
      <point x="389" y="374"/>
      <point x="320" y="490"/>
      <point x="228" y="490" type="curve" smooth="yes"/>
      <point x="152" y="490"/>
      <point x="86" y="415"/>
      <point x="86" y="257" type="curve" smooth="yes"/>
      <point x="86" y="91"/>
      <point x="155" y="22"/>
      <point x="229" y="22" type="curve" smooth="yes"/>
      <point x="319" y="22"/>
      <point x="389" y="138"/>
    </contour>
  </outline>
</glyph>
<glyph name="h" format="1">
  <advance width="478"/>
  <unicode hex="0068"/>
  <outline>
    <contour>
      <point x="406" y="0" type="line"/>
      <point x="366" y="0" type="line"/>
      <point x="366" y="398" type="line" smooth="yes"/>
      <point x="366" y="455"/>
      <point x="340" y="485"/>
      <point x="292" y="485" type="curve" smooth="yes"/>
      <point x="237" y="485"/>
      <point x="173" y="433"/>
      <point x="116" y="337" type="curve"/>
      <point x="116" y="0" type="line"/>
      <point x="76" y="0" type="line"/>
      <point x="76" y="740" type="line"/>
      <point x="116" y="762" type="line"/>
      <point x="116" y="384" type="line"/>
      <point x="122" y="384" type="line"/>
      <point x="174" y="462"/>
      <point x="232" y="517"/>
      <point x="304" y="517" type="curve" smooth="yes"/>
      <point x="374" y="517"/>
      <point x="406" y="469"/>
      <point x="406" y="406" type="curve" smooth="yes"/>
    </contour>
  </outline>
</glyph>
<glyph name="i" format="1">
  <advance width="212"/>
  <unicode hex="0069"/>
  <outline>
    <contour>
      <point x="134" y="645" type="line"/>
      <point x="78" y="645" type="line"/>
      <point x="78" y="720" type="line"/>
      <point x="134" y="720" type="line"/>
    </contour>
    <contour>
      <point x="126" y="0" type="line"/>
      <point x="86" y="0" type="line"/>
      <point x="86" y="512" type="line"/>
      <point x="126" y="512" type="line"/>
    </contour>
  </outline>
</glyph>
<glyph name="j" format="1">
  <advance width="212"/>
  <unicode hex="006A"/>
  <outline>
    <contour>
      <point x="134" y="645" type="line"/>
      <point x="78" y="645" type="line"/>
      <point x="78" y="720" type="line"/>
      <point x="134" y="720" type="line"/>
    </contour>
    <contour>
      <point x="126" y="-72" type="line" smooth="yes"/>
      <point x="126" y="-152"/>
      <point x="90" y="-190"/>
      <point x="20" y="-190" type="curve" smooth="yes"/>
      <point x="-1" y="-190"/>
      <point x="-13" y="-187"/>
      <point x="-28" y="-182" type="curve"/>
      <point x="-28" y="-147" type="line"/>
      <point x="-11" y="-154"/>
      <point x="3" y="-157"/>
      <point x="25" y="-157" type="curve" smooth="yes"/>
      <point x="63" y="-157"/>
      <point x="86" y="-136"/>
      <point x="86" y="-76" type="curve" smooth="yes"/>
      <point x="86" y="512" type="line"/>
      <point x="126" y="512" type="line"/>
    </contour>
  </outline>
</glyph>
<glyph name="o" format="1">
  <advance width="480"/>
  <unicode hex="006F"/>
  <outline>
    <contour>
      <point x="434" y="256" type="line" smooth="yes"/>
      <point x="434" y="102"/>
      <point x="358" y="-10"/>
      <point x="240" y="-10" type="curve" smooth="yes"/>
      <point x="122" y="-10"/>
      <point x="46" y="100"/>
      <point x="46" y="254" type="curve" smooth="yes"/>
      <point x="46" y="256" type="line" smooth="yes"/>
      <point x="46" y="410"/>
      <point x="122" y="522"/>
      <point x="240" y="522" type="curve" smooth="yes"/>
      <point x="358" y="522"/>
      <point x="434" y="412"/>
      <point x="434" y="258" type="curve" smooth="yes"/>
    </contour>
    <contour>
      <point x="394" y="254" type="curve" smooth="yes"/>
      <point x="394" y="256" type="line" smooth="yes"/>
      <point x="394" y="392"/>
      <point x="338" y="490"/>
      <point x="240" y="490" type="curve" smooth="yes"/>
      <point x="142" y="490"/>
      <point x="86" y="393"/>
      <point x="86" y="258" type="curve" smooth="yes"/>
      <point x="86" y="256" type="line" smooth="yes"/>
      <point x="86" y="120"/>
      <point x="142" y="22"/>
      <point x="240" y="22" type="curve" smooth="yes"/>
      <point x="338" y="22"/>
      <point x="394" y="119"/>
    </contour>
  </outline>
</glyph>
<glyph name="p" format="1">
  <advance width="502"/>
  <unicode hex="0070"/>
  <outline>
    <contour>
      <point x="456" y="256" type="line" smooth="yes"/>
      <point x="456" y="82"/>
      <point x="369" y="-10"/>
      <point x="279" y="-10" type="curve" smooth="yes"/>
      <point x="206" y="-10"/>
      <point x="159" y="40"/>
      <point x="122" y="116" type="curve"/>
      <point x="116" y="116" type="line"/>
      <point x="116" y="-188" type="line"/>
      <point x="76" y="-188" type="line"/>
      <point x="76" y="499" type="line"/>
      <point x="116" y="521" type="line"/>
      <point x="116" y="394" type="line"/>
      <point x="122" y="394" type="line"/>
      <point x="162" y="472"/>
      <point x="204" y="522"/>
      <point x="281" y="522" type="curve" smooth="yes"/>
      <point x="376" y="522"/>
      <point x="456" y="433"/>
      <point x="456" y="258" type="curve" smooth="yes"/>
    </contour>
    <contour>
      <point x="416" y="255" type="curve" smooth="yes"/>
      <point x="416" y="421"/>
      <point x="347" y="490"/>
      <point x="273" y="490" type="curve" smooth="yes"/>
      <point x="183" y="490"/>
      <point x="113" y="374"/>
      <point x="113" y="256" type="curve" smooth="yes"/>
      <point x="113" y="138"/>
      <point x="182" y="22"/>
      <point x="274" y="22" type="curve" smooth="yes"/>
      <point x="350" y="22"/>
      <point x="416" y="97"/>
    </contour>
  </outline>
</glyph>
<glyph name="t" format="1">
  <advance width="335"/>
  <unicode hex="0074"/>
  <outline>
    <contour>
      <point x="313" y="23" type="line"/>
      <point x="277" y="1"/>
      <point x="246" y="-10"/>
      <point x="210" y="-10" type="curve" smooth="yes"/>
      <point x="157" y="-10"/>
      <point x="115" y="15"/>
      <point x="115" y="87" type="curve" smooth="yes"/>
      <point x="115" y="475" type="line"/>
      <point x="19" y="475" type="line"/>
      <point x="19" y="507" type="line"/>
      <point x="115" y="507" type="line"/>
      <point x="115" y="678" type="line"/>
      <point x="155" y="732" type="line"/>
      <point x="155" y="507" type="line"/>
      <point x="285" y="507" type="line"/>
      <point x="285" y="475" type="line"/>
      <point x="155" y="475" type="line"/>
      <point x="155" y="91" type="line" smooth="yes"/>
      <point x="155" y="43"/>
      <point x="181" y="22"/>
      <point x="215" y="22" type="curve" smooth="yes"/>
      <point x="244" y="22"/>
      <point x="273" y="33"/>
      <point x="313" y="59" type="curve"/>
    </contour>
  </outline>
</glyph>
<glyph name="v" format="1">
  <advance width="440"/>
  <unicode hex="0076"/>
  <outline>
    <contour>
      <point x="410" y="512" type="line"/>
      <point x="240" y="-6" type="line"/>
      <point x="200" y="-6" type="line"/>
      <point x="30" y="512" type="line"/>
      <point x="72" y="512" type="line"/>
      <point x="221" y="37" type="line"/>
      <point x="370" y="512" type="line"/>
    </contour>
  </outline>
</glyph>
<glyph name="w" format="1">
  <advance width="732"/>
  <unicode hex="0077"/>
  <outline>
    <contour>
      <point x="700" y="512" type="line"/>
      <point x="537" y="-4" type="line"/>
      <point x="497" y="-4" type="line"/>
      <point x="366" y="459" type="line"/>
      <point x="235" y="-4" type="line"/>
      <point x="195" y="-4" type="line"/>
      <point x="32" y="512" type="line"/>
      <point x="74" y="512" type="line"/>
      <point x="216" y="39" type="line"/>
      <point x="347" y="512" type="line"/>
      <point x="387" y="512" type="line"/>
      <point x="518" y="39" type="line"/>
      <point x="660" y="512" type="line"/>
    </contour>
  </outline>
</glyph>
<glyph name="x" format="1">
  <advance width="454"/>
  <unicode hex="0078"/>
  <outline>
    <contour>
      <point x="420" y="0" type="line"/>
      <point x="375" y="0" type="line"/>
      <point x="226" y="234" type="line"/>
      <point x="77" y="0" type="line"/>
      <point x="34" y="0" type="line"/>
      <point x="207" y="260" type="line"/>
      <point x="40" y="512" type="line"/>
      <point x="85" y="512" type="line"/>
      <point x="228" y="287" type="line"/>
      <point x="371" y="512" type="line"/>
      <point x="414" y="512" type="line"/>
      <point x="247" y="262" type="line"/>
    </contour>
  </outline>
</glyph>
<glyph name="y" format="1">
  <advance width="440"/>
  <unicode hex="0079"/>
  <outline>
    <contour>
      <point x="410" y="512" type="line"/>
      <point x="219" y="-69" type="line" smooth="yes"/>
      <point x="189" y="-160"/>
      <point x="147" y="-193"/>
      <point x="86" y="-193" type="curve" smooth="yes"/>
      <point x="61" y="-193"/>
      <point x="40" y="-187"/>
      <point x="21" y="-178" type="curve"/>
      <point x="21" y="-137" type="line"/>
      <point x="40" y="-137" type="line"/>
      <point x="50" y="-154"/>
      <point x="65" y="-164"/>
      <point x="94" y="-164" type="curve" smooth="yes"/>
      <point x="133" y="-164"/>
      <point x="160" y="-134"/>
      <point x="181" y="-74" type="curve" smooth="yes"/>
      <point x="203" y="-11" type="line"/>
      <point x="30" y="512" type="line"/>
      <point x="72" y="512" type="line"/>
      <point x="222" y="36" type="line"/>
      <point x="371" y="512" type="line"/>
    </contour>
  </outline>
</glyph>
<glyph name="braceleft" format="1">
  <advance width="364"/>
  <unicode hex="007B"/>
  <outline>
    <contour>
      <point x="328" y="-80" type="line"/>
      <point x="266" y="-80" type="line" smooth="yes"/>
      <point x="180" y="-80"/>
      <point x="137" y="-34"/>
      <point x="137" y="43" type="curve" smooth="yes"/>
      <point x="137" y="90"/>
      <point x="157" y="162"/>
      <point x="157" y="203" type="curve" smooth="yes"/>
      <point x="157" y="274"/>
      <point x="101" y="303"/>
      <point x="26" y="303" type="curve"/>
      <point x="26" y="337" type="line"/>
      <point x="101" y="337"/>
      <point x="157" y="366"/>
      <point x="157" y="437" type="curve" smooth="yes"/>
      <point x="157" y="478"/>
      <point x="137" y="550"/>
      <point x="137" y="597" type="curve" smooth="yes"/>
      <point x="137" y="674"/>
      <point x="180" y="720"/>
      <point x="266" y="720" type="curve" smooth="yes"/>
      <point x="328" y="720" type="line"/>
      <point x="328" y="688" type="line"/>
      <point x="264" y="688" type="line" smooth="yes"/>
      <point x="205" y="688"/>
      <point x="178" y="649"/>
      <point x="178" y="604" type="curve" smooth="yes"/>
      <point x="178" y="560"/>
      <point x="198" y="497"/>
      <point x="198" y="447" type="curve" smooth="yes"/>
      <point x="198" y="370"/>
      <point x="149" y="343"/>
      <point x="93" y="324" type="curve"/>
      <point x="93" y="316" type="line"/>
      <point x="149" y="297"/>
      <point x="198" y="270"/>
      <point x="198" y="193" type="curve" smooth="yes"/>
      <point x="198" y="143"/>
      <point x="178" y="80"/>
      <point x="178" y="36" type="curve" smooth="yes"/>
      <point x="178" y="-9"/>
      <point x="205" y="-48"/>
      <point x="264" y="-48" type="curve" smooth="yes"/>
      <point x="328" y="-48" type="line"/>
    </contour>
  </outline>
</glyph>
<glyph name="bar" format="1">
  <advance width="228"/>
  <unicode hex="007C"/>
  <outline>
    <contour>
      <point x="133" y="-188" type="line"/>
      <point x="95" y="-188" type="line"/>
      <point x="95" y="762" type="line"/>
      <point x="133" y="762" type="line"/>
    </contour>
  </outline>
</glyph>
<glyph name="braceright" format="1">
  <advance width="364"/>
  <unicode hex="007D"/>
  <outline>
    <contour>
      <point x="338" y="303" type="line"/>
      <point x="263" y="303"/>
      <point x="207" y="274"/>
      <point x="207" y="203" type="curve" smooth="yes"/>
      <point x="207" y="162"/>
      <point x="227" y="90"/>
      <point x="227" y="43" type="curve" smooth="yes"/>
      <point x="227" y="-34"/>
      <point x="184" y="-80"/>
      <point x="98" y="-80" type="curve" smooth="yes"/>
      <point x="36" y="-80" type="line"/>
      <point x="36" y="-48" type="line"/>
      <point x="100" y="-48" type="line" smooth="yes"/>
      <point x="159" y="-48"/>
      <point x="186" y="-9"/>
      <point x="186" y="36" type="curve" smooth="yes"/>
      <point x="186" y="80"/>
      <point x="166" y="143"/>
      <point x="166" y="193" type="curve" smooth="yes"/>
      <point x="166" y="270"/>
      <point x="215" y="297"/>
      <point x="271" y="316" type="curve"/>
      <point x="271" y="324" type="line"/>
      <point x="215" y="343"/>
      <point x="166" y="370"/>
      <point x="166" y="447" type="curve" smooth="yes"/>
      <point x="166" y="497"/>
      <point x="186" y="560"/>
      <point x="186" y="604" type="curve" smooth="yes"/>
      <point x="186" y="649"/>
      <point x="159" y="688"/>
      <point x="100" y="688" type="curve" smooth="yes"/>
      <point x="36" y="688" type="line"/>
      <point x="36" y="720" type="line"/>
      <point x="98" y="720" type="line" smooth="yes"/>
      <point x="184" y="720"/>
      <point x="227" y="674"/>
      <point x="227" y="597" type="curve" smooth="yes"/>
      <point x="227" y="550"/>
      <point x="207" y="478"/>
      <point x="207" y="437" type="curve" smooth="yes"/>
      <point x="207" y="366"/>
      <point x="263" y="337"/>
      <point x="338" y="337" type="curve"/>
    </contour>
  </outline>
</glyph>
<glyph name="exclamdown" format="1">
  <advance width="230"/>
  <unicode hex="00A1"/>
  <outline>
    <contour>
      <point x="152" y="690" type="curve" smooth="yes"/>
      <point x="152" y="669"/>
      <point x="136" y="653"/>
      <point x="115" y="653" type="curve" smooth="yes"/>
      <point x="94" y="653"/>
      <point x="78" y="669"/>
      <point x="78" y="690" type="curve" smooth="yes"/>
      <point x="78" y="711"/>
      <point x="94" y="727"/>
      <point x="115" y="727" type="curve" smooth="yes"/>
      <point x="136" y="727"/>
      <point x="152" y="711"/>
    </contour>
    <contour>
      <point x="142" y="0" type="line"/>
      <point x="88" y="0" type="line"/>
      <point x="106" y="522" type="line"/>
      <point x="124" y="522" type="line"/>
    </contour>
  </outline>
</glyph>
<glyph name="cent" format="1">
  <advance width="441"/>
  <unicode hex="00A2"/>
  <outline>
    <contour>
      <point x="407" y="111" type="line"/>
      <point x="375" y="38"/>
      <point x="323" y="-10"/>
      <point x="246" y="-10" type="curve" smooth="yes"/>
      <point x="220" y="-10"/>
      <point x="197" y="-5"/>
      <point x="176" y="6" type="curve"/>
      <point x="139" y="-95" type="line"/>
      <point x="107" y="-95" type="line"/>
      <point x="149" y="21" type="line"/>
      <point x="91" y="64"/>
      <point x="57" y="148"/>
      <point x="57" y="254" type="curve" smooth="yes"/>
      <point x="57" y="256" type="line" smooth="yes"/>
      <point x="57" y="410"/>
      <point x="133" y="522"/>
      <point x="249" y="522" type="curve" smooth="yes"/>
      <point x="279" y="522"/>
      <point x="304" y="516"/>
      <point x="325" y="503" type="curve"/>
      <point x="363" y="607" type="line"/>
      <point x="395" y="607" type="line"/>
      <point x="187" y="37" type="line"/>
      <point x="205" y="26"/>
      <point x="225" y="21"/>
      <point x="248" y="21" type="curve" smooth="yes"/>
      <point x="309" y="21"/>
      <point x="347" y="58"/>
      <point x="378" y="125" type="curve"/>
    </contour>
    <contour>
      <point x="314" y="472" type="line"/>
      <point x="296" y="484"/>
      <point x="274" y="491"/>
      <point x="247" y="491" type="curve" smooth="yes"/>
      <point x="154" y="491"/>
      <point x="96" y="394"/>
      <point x="96" y="258" type="curve" smooth="yes"/>
      <point x="96" y="256" type="line" smooth="yes"/>
      <point x="96" y="168"/>
      <point x="120" y="96"/>
      <point x="162" y="55" type="curve"/>
    </contour>
  </outline>
</glyph>
<glyph name="yen" format="1">
  <advance width="600"/>
  <unicode hex="00A5"/>
  <outline>
    <contour>
      <point x="574" y="720" type="line"/>
      <point x="377" y="375" type="line"/>
      <point x="524" y="375" type="line"/>
      <point x="524" y="340" type="line"/>
      <point x="357" y="340" type="line"/>
      <point x="321" y="276" type="line"/>
      <point x="321" y="194" type="line"/>
      <point x="524" y="194" type="line"/>
      <point x="524" y="159" type="line"/>
      <point x="321" y="159" type="line"/>
      <point x="321" y="0" type="line"/>
      <point x="279" y="0" type="line"/>
      <point x="279" y="159" type="line"/>
      <point x="76" y="159" type="line"/>
      <point x="76" y="194" type="line"/>
      <point x="279" y="194" type="line"/>
      <point x="279" y="276" type="line"/>
      <point x="243" y="340" type="line"/>
      <point x="76" y="340" type="line"/>
      <point x="76" y="375" type="line"/>
      <point x="223" y="375" type="line"/>
      <point x="26" y="720" type="line"/>
      <point x="75" y="720" type="line"/>
      <point x="301" y="308" type="line"/>
      <point x="527" y="720" type="line"/>
    </contour>
  </outline>
</glyph>
<glyph name="section" format="1">
  <advance width="568"/>
  <unicode hex="00A7"/>
  <outline>
    <contour>
      <point x="525" y="344" type="curve" smooth="yes"/>
      <point x="525" y="282"/>
      <point x="464" y="224"/>
      <point x="352" y="219" type="curve"/>
      <point x="352" y="213" type="line"/>
      <point x="431" y="190"/>
      <point x="459" y="151"/>
      <point x="459" y="101" type="curve" smooth="yes"/>
      <point x="459" y="32"/>
      <point x="386" y="-12"/>
      <point x="292" y="-12" type="curve" smooth="yes"/>
      <point x="220" y="-12"/>
      <point x="171" y="2"/>
      <point x="108" y="35" type="curve"/>
      <point x="128" y="69" type="line"/>
      <point x="182" y="37"/>
      <point x="229" y="22"/>
      <point x="295" y="22" type="curve" smooth="yes"/>
      <point x="369" y="22"/>
      <point x="419" y="53"/>
      <point x="419" y="96" type="curve" smooth="yes"/>
      <point x="419" y="145"/>
      <point x="398" y="177"/>
      <point x="238" y="222" type="curve" smooth="yes"/>
      <point x="102" y="260"/>
      <point x="43" y="310"/>
      <point x="43" y="376" type="curve" smooth="yes"/>
      <point x="43" y="438"/>
      <point x="104" y="496"/>
      <point x="216" y="501" type="curve"/>
      <point x="216" y="507" type="line"/>
      <point x="137" y="530"/>
      <point x="109" y="569"/>
      <point x="109" y="619" type="curve" smooth="yes"/>
      <point x="109" y="688"/>
      <point x="182" y="732"/>
      <point x="276" y="732" type="curve" smooth="yes"/>
      <point x="348" y="732"/>
      <point x="397" y="718"/>
      <point x="460" y="685" type="curve"/>
      <point x="440" y="651" type="line"/>
      <point x="386" y="683"/>
      <point x="339" y="698"/>
      <point x="273" y="698" type="curve" smooth="yes"/>
      <point x="199" y="698"/>
      <point x="149" y="667"/>
      <point x="149" y="624" type="curve" smooth="yes"/>
      <point x="149" y="575"/>
      <point x="170" y="543"/>
      <point x="330" y="498" type="curve" smooth="yes"/>
      <point x="466" y="460"/>
      <point x="525" y="410"/>
    </contour>
    <contour>
      <point x="484" y="340" type="curve" smooth="yes"/>
      <point x="484" y="387"/>
      <point x="448" y="427"/>
      <point x="340" y="460" type="curve" smooth="yes"/>
      <point x="301" y="472"/>
      <point x="269" y="476"/>
      <point x="224" y="476" type="curve" smooth="yes"/>
      <point x="145" y="476"/>
      <point x="84" y="440"/>
      <point x="84" y="380" type="curve" smooth="yes"/>
      <point x="84" y="333"/>
      <point x="120" y="293"/>
      <point x="228" y="260" type="curve" smooth="yes"/>
      <point x="267" y="248"/>
      <point x="299" y="244"/>
      <point x="344" y="244" type="curve" smooth="yes"/>
      <point x="423" y="244"/>
      <point x="484" y="280"/>
    </contour>
  </outline>
</glyph>
<glyph name="dieresis" format="1">
  <advance width="500"/>
  <unicode hex="00A8"/>
  <outline>
    <contour>
      <point x="365" y="592" type="line"/>
      <point x="306" y="592" type="line"/>
      <point x="306" y="667" type="line"/>
      <point x="365" y="667" type="line"/>
    </contour>
    <contour>
      <point x="194" y="592" type="line"/>
      <point x="135" y="592" type="line"/>
      <point x="135" y="667" type="line"/>
      <point x="194" y="667" type="line"/>
    </contour>
  </outline>
</glyph>
<glyph name="copyright" format="1">
  <advance width="840"/>
  <unicode hex="00A9"/>
  <outline>
    <contour>
      <point x="792" y="360" type="curve" smooth="yes"/>
      <point x="792" y="150"/>
      <point x="630" y="-12"/>
      <point x="420" y="-12" type="curve" smooth="yes"/>
      <point x="210" y="-12"/>
      <point x="48" y="150"/>
      <point x="48" y="360" type="curve" smooth="yes"/>
      <point x="48" y="570"/>
      <point x="210" y="732"/>
      <point x="420" y="732" type="curve" smooth="yes"/>
      <point x="630" y="732"/>
      <point x="792" y="570"/>
    </contour>
    <contour>
      <point x="758" y="360" type="curve" smooth="yes"/>
      <point x="758" y="553"/>
      <point x="613" y="702"/>
      <point x="420" y="702" type="curve" smooth="yes"/>
      <point x="227" y="702"/>
      <point x="82" y="553"/>
      <point x="82" y="360" type="curve" smooth="yes"/>
      <point x="82" y="167"/>
      <point x="227" y="18"/>
      <point x="420" y="18" type="curve" smooth="yes"/>
      <point x="613" y="18"/>
      <point x="758" y="167"/>
    </contour>
    <contour>
      <point x="549" y="286" type="line"/>
      <point x="530" y="210"/>
      <point x="490" y="160"/>
      <point x="417" y="160" type="curve" smooth="yes"/>
      <point x="328" y="160"/>
      <point x="274" y="240"/>
      <point x="274" y="364" type="curve" smooth="yes"/>
      <point x="274" y="365" type="line" smooth="yes"/>
      <point x="274" y="489"/>
      <point x="327" y="569"/>
      <point x="418" y="569" type="curve" smooth="yes"/>
      <point x="485" y="569"/>
      <point x="527" y="529"/>
      <point x="547" y="454" type="curve"/>
      <point x="510" y="442" type="line"/>
      <point x="492" y="504"/>
      <point x="466" y="535"/>
      <point x="418" y="535" type="curve" smooth="yes"/>
      <point x="347" y="535"/>
      <point x="314" y="463"/>
      <point x="314" y="366" type="curve" smooth="yes"/>
      <point x="314" y="365" type="line" smooth="yes"/>
      <point x="314" y="268"/>
      <point x="347" y="195"/>
      <point x="418" y="195" type="curve" smooth="yes"/>
      <point x="469" y="195"/>
      <point x="497" y="233"/>
      <point x="513" y="298" type="curve"/>
    </contour>
  </outline>
</glyph>
<glyph name="ordfeminine" format="1">
  <advance width="370"/>
  <unicode hex="00AA"/>
  <outline>
    <contour>
      <point x="328" y="376" type="line"/>
      <point x="285" y="374"/>
      <point x="261" y="396"/>
      <point x="257" y="438" type="curve"/>
      <point x="224" y="394"/>
      <point x="187" y="374"/>
      <point x="146" y="374" type="curve" smooth="yes"/>
      <point x="94" y="374"/>
      <point x="50" y="405"/>
      <point x="50" y="466" type="curve" smooth="yes"/>
      <point x="50" y="535"/>
      <point x="121" y="585"/>
      <point x="256" y="584" type="curve"/>
      <point x="256" y="622" type="line" smooth="yes"/>
      <point x="256" y="674"/>
      <point x="238" y="696"/>
      <point x="197" y="696" type="curve" smooth="yes"/>
      <point x="160" y="696"/>
      <point x="127" y="684"/>
      <point x="91" y="662" type="curve"/>
      <point x="79" y="689" type="line"/>
      <point x="116" y="709"/>
      <point x="151" y="725"/>
      <point x="201" y="725" type="curve" smooth="yes"/>
      <point x="263" y="725"/>
      <point x="291" y="694"/>
      <point x="291" y="624" type="curve" smooth="yes"/>
      <point x="291" y="449" type="line" smooth="yes"/>
      <point x="291" y="423"/>
      <point x="301" y="404"/>
      <point x="328" y="402" type="curve"/>
    </contour>
    <contour>
      <point x="315" y="261" type="line"/>
      <point x="53" y="261" type="line"/>
      <point x="53" y="292" type="line"/>
      <point x="315" y="292" type="line"/>
    </contour>
    <contour>
      <point x="256" y="468" type="curve"/>
      <point x="256" y="560" type="line"/>
      <point x="134" y="562"/>
      <point x="85" y="517"/>
      <point x="85" y="467" type="curve" smooth="yes"/>
      <point x="85" y="426"/>
      <point x="112" y="402"/>
      <point x="149" y="402" type="curve" smooth="yes"/>
      <point x="189" y="402"/>
      <point x="226" y="425"/>
    </contour>
  </outline>
</glyph>
<glyph name="guillemotleft" format="1">
  <advance width="440"/>
  <unicode hex="00AB"/>
  <outline>
    <contour>
      <point x="404" y="80" type="line"/>
      <point x="370" y="80" type="line"/>
      <point x="215" y="256" type="line"/>
      <point x="370" y="432" type="line"/>
      <point x="404" y="432" type="line"/>
      <point x="267" y="256" type="line"/>
    </contour>
    <contour>
      <point x="221" y="80" type="line"/>
      <point x="187" y="80" type="line"/>
      <point x="32" y="256" type="line"/>
      <point x="187" y="432" type="line"/>
      <point x="221" y="432" type="line"/>
      <point x="84" y="256" type="line"/>
    </contour>
  </outline>
</glyph>
<glyph name="degree" format="1">
  <advance width="400"/>
  <unicode hex="00B0"/>
  <outline>
    <contour>
      <point x="345" y="581" type="curve" smooth="yes"/>
      <point x="345" y="498"/>
      <point x="283" y="438"/>
      <point x="200" y="438" type="curve" smooth="yes"/>
      <point x="117" y="438"/>
      <point x="55" y="498"/>
      <point x="55" y="581" type="curve" smooth="yes"/>
      <point x="55" y="664"/>
      <point x="117" y="724"/>
      <point x="200" y="724" type="curve" smooth="yes"/>
      <point x="283" y="724"/>
      <point x="345" y="664"/>
    </contour>
    <contour>
      <point x="308" y="581" type="curve" smooth="yes"/>
      <point x="308" y="646"/>
      <point x="262" y="692"/>
      <point x="200" y="692" type="curve" smooth="yes"/>
      <point x="138" y="692"/>
      <point x="92" y="646"/>
      <point x="92" y="581" type="curve" smooth="yes"/>
      <point x="92" y="516"/>
      <point x="138" y="470"/>
      <point x="200" y="470" type="curve" smooth="yes"/>
      <point x="262" y="470"/>
      <point x="308" y="516"/>
    </contour>
  </outline>
</glyph>
<glyph name="periodcentered" format="1">
  <advance width="170"/>
  <unicode hex="00B7"/>
  <outline>
    <contour>
      <point x="123" y="278" type="curve" smooth="yes"/>
      <point x="123" y="256"/>
      <point x="107" y="240"/>
      <point x="85" y="240" type="curve" smooth="yes"/>
      <point x="63" y="240"/>
      <point x="47" y="256"/>
      <point x="47" y="278" type="curve" smooth="yes"/>
      <point x="47" y="300"/>
      <point x="63" y="316"/>
      <point x="85" y="316" type="curve" smooth="yes"/>
      <point x="107" y="316"/>
      <point x="123" y="300"/>
    </contour>
  </outline>
</glyph>
<glyph name="cedilla" format="1">
  <advance width="500"/>
  <unicode hex="00B8"/>
  <outline>
    <contour>
      <point x="363" y="-104" type="curve" smooth="yes"/>
      <point x="363" y="-164"/>
      <point x="289" y="-193"/>
      <point x="168" y="-191" type="curve"/>
      <point x="168" y="-169" type="line"/>
      <point x="278" y="-167"/>
      <point x="318" y="-144"/>
      <point x="318" y="-109" type="curve" smooth="yes"/>
      <point x="318" y="-90"/>
      <point x="304" y="-78"/>
      <point x="279" y="-78" type="curve" smooth="yes"/>
      <point x="257" y="-78"/>
      <point x="241" y="-82"/>
      <point x="224" y="-90" type="curve"/>
      <point x="205" y="-78" type="line"/>
      <point x="249" y="0" type="line"/>
      <point x="282" y="0" type="line"/>
      <point x="250" y="-56" type="line"/>
      <point x="265" y="-50"/>
      <point x="278" y="-46"/>
      <point x="296" y="-46" type="curve" smooth="yes"/>
      <point x="337" y="-46"/>
      <point x="363" y="-66"/>
    </contour>
  </outline>
</glyph>
<glyph name="AE" format="1">
  <advance width="903"/>
  <unicode hex="00C6"/>
  <outline>
    <contour>
      <point x="861" y="0" type="line"/>
      <point x="461" y="0" type="line"/>
      <point x="461" y="201" type="line"/>
      <point x="171" y="201" type="line"/>
      <point x="62" y="0" type="line"/>
      <point x="16" y="0" type="line"/>
      <point x="407" y="720" type="line"/>
      <point x="849" y="720" type="line"/>
      <point x="849" y="684" type="line"/>
      <point x="505" y="684" type="line"/>
      <point x="505" y="396" type="line"/>
      <point x="796" y="396" type="line"/>
      <point x="796" y="360" type="line"/>
      <point x="505" y="360" type="line"/>
      <point x="505" y="36" type="line"/>
      <point x="861" y="36" type="line"/>
    </contour>
    <contour>
      <point x="461" y="237" type="line"/>
      <point x="461" y="682" type="line"/>
      <point x="431" y="682" type="line"/>
      <point x="190" y="237" type="line"/>
    </contour>
  </outline>
</glyph>
<glyph name="Eth" format="1">
  <advance width="651"/>
  <unicode hex="00D0"/>
  <outline>
    <contour>
      <point x="594" y="360" type="line" smooth="yes"/>
      <point x="594" y="135"/>
      <point x="481" y="0"/>
      <point x="278" y="0" type="curve" smooth="yes"/>
      <point x="127" y="0" type="line"/>
      <point x="127" y="360" type="line"/>
      <point x="31" y="360" type="line"/>
      <point x="31" y="396" type="line"/>
      <point x="127" y="396" type="line"/>
      <point x="127" y="720" type="line"/>
      <point x="283" y="720" type="line" smooth="yes"/>
      <point x="487" y="720"/>
      <point x="594" y="585"/>
      <point x="594" y="362" type="curve" smooth="yes"/>
    </contour>
    <contour>
      <point x="550" y="358" type="curve" smooth="yes"/>
      <point x="550" y="360" type="line" smooth="yes"/>
      <point x="550" y="570"/>
      <point x="454" y="684"/>
      <point x="278" y="684" type="curve" smooth="yes"/>
      <point x="171" y="684" type="line"/>
      <point x="171" y="396" type="line"/>
      <point x="324" y="396" type="line"/>
      <point x="324" y="360" type="line"/>
      <point x="171" y="360" type="line"/>
      <point x="171" y="36" type="line"/>
      <point x="283" y="36" type="line" smooth="yes"/>
      <point x="450" y="36"/>
      <point x="550" y="150"/>
    </contour>
  </outline>
</glyph>
<glyph name="germandbls" format="1">
  <advance width="566"/>
  <unicode hex="00DF"/>
  <outline>
    <contour>
      <point x="520" y="179" type="curve" smooth="yes"/>
      <point x="520" y="67"/>
      <point x="444" y="-10"/>
      <point x="343" y="-10" type="curve" smooth="yes"/>
      <point x="277" y="-10"/>
      <point x="234" y="13"/>
      <point x="202" y="45" type="curve"/>
      <point x="227" y="70" type="line"/>
      <point x="259" y="39"/>
      <point x="288" y="22"/>
      <point x="346" y="22" type="curve" smooth="yes"/>
      <point x="420" y="22"/>
      <point x="480" y="78"/>
      <point x="480" y="176" type="curve" smooth="yes"/>
      <point x="480" y="309"/>
      <point x="386" y="388"/>
      <point x="230" y="398" type="curve"/>
      <point x="230" y="428" type="line"/>
      <point x="351" y="431"/>
      <point x="411" y="504"/>
      <point x="411" y="589" type="curve" smooth="yes"/>
      <point x="411" y="667"/>
      <point x="358" y="727"/>
      <point x="266" y="727" type="curve" smooth="yes"/>
      <point x="173" y="727"/>
      <point x="116" y="662"/>
      <point x="116" y="549" type="curve" smooth="yes"/>
      <point x="116" y="0" type="line"/>
      <point x="76" y="0" type="line"/>
      <point x="76" y="545" type="line" smooth="yes"/>
      <point x="76" y="675"/>
      <point x="147" y="759"/>
      <point x="267" y="759" type="curve" smooth="yes"/>
      <point x="381" y="759"/>
      <point x="451" y="686"/>
      <point x="451" y="592" type="curve" smooth="yes"/>
      <point x="451" y="507"/>
      <point x="394" y="444"/>
      <point x="320" y="421" type="curve"/>
      <point x="320" y="413" type="line"/>
      <point x="421" y="390"/>
      <point x="520" y="314"/>
    </contour>
  </outline>
</glyph>
<glyph name="ae" format="1">
  <advance width="741"/>
  <unicode hex="00E6"/>
  <outline>
    <contour>
      <point x="700" y="251" type="line"/>
      <point x="382" y="251" type="line"/>
      <point x="383" y="104"/>
      <point x="444" y="22"/>
      <point x="539" y="22" type="curve" smooth="yes"/>
      <point x="593" y="22"/>
      <point x="632" y="46"/>
      <point x="669" y="87" type="curve"/>
      <point x="693" y="64" type="line"/>
      <point x="655" y="21"/>
      <point x="604" y="-10"/>
      <point x="537" y="-10" type="curve" smooth="yes"/>
      <point x="464" y="-10"/>
      <point x="404" y="30"/>
      <point x="370" y="104" type="curve"/>
      <point x="314" y="32"/>
      <point x="246" y="-8"/>
      <point x="175" y="-8" type="curve" smooth="yes"/>
      <point x="97" y="-8"/>
      <point x="35" y="39"/>
      <point x="35" y="127" type="curve" smooth="yes"/>
      <point x="35" y="232"/>
      <point x="143" y="303"/>
      <point x="342" y="302" type="curve"/>
      <point x="342" y="376" type="line" smooth="yes"/>
      <point x="342" y="447"/>
      <point x="309" y="484"/>
      <point x="245" y="484" type="curve" smooth="yes"/>
      <point x="197" y="484"/>
      <point x="150" y="465"/>
      <point x="95" y="433" type="curve"/>
      <point x="80" y="464" type="line"/>
      <point x="132" y="493"/>
      <point x="184" y="517"/>
      <point x="252" y="517" type="curve" smooth="yes"/>
      <point x="329" y="517"/>
      <point x="364" y="470"/>
      <point x="372" y="400" type="curve"/>
      <point x="379" y="400" type="line"/>
      <point x="408" y="475"/>
      <point x="456" y="522"/>
      <point x="526" y="522" type="curve" smooth="yes"/>
      <point x="634" y="522"/>
      <point x="700" y="415"/>
      <point x="700" y="253" type="curve" smooth="yes"/>
    </contour>
    <contour>
      <point x="659" y="283" type="line"/>
      <point x="651" y="414"/>
      <point x="608" y="490"/>
      <point x="526" y="490" type="curve" smooth="yes"/>
      <point x="442" y="490"/>
      <point x="389" y="405"/>
      <point x="383" y="283" type="curve"/>
    </contour>
    <contour>
      <point x="359" y="134" type="curve"/>
      <point x="348" y="169"/>
      <point x="342" y="209"/>
      <point x="342" y="254" type="curve" smooth="yes"/>
      <point x="342" y="273" type="line"/>
      <point x="156" y="277"/>
      <point x="75" y="208"/>
      <point x="75" y="129" type="curve" smooth="yes"/>
      <point x="75" y="62"/>
      <point x="119" y="24"/>
      <point x="180" y="24" type="curve" smooth="yes"/>
      <point x="239" y="24"/>
      <point x="306" y="61"/>
    </contour>
  </outline>
</glyph>
<glyph name="divide" format="1">
  <advance width="600"/>
  <unicode hex="00F7"/>
  <outline>
    <contour>
      <point x="340" y="549" type="curve" smooth="yes"/>
      <point x="340" y="526"/>
      <point x="323" y="509"/>
      <point x="300" y="509" type="curve" smooth="yes"/>
      <point x="277" y="509"/>
      <point x="260" y="526"/>
      <point x="260" y="549" type="curve" smooth="yes"/>
      <point x="260" y="572"/>
      <point x="277" y="589"/>
      <point x="300" y="589" type="curve" smooth="yes"/>
      <point x="323" y="589"/>
      <point x="340" y="572"/>
    </contour>
    <contour>
      <point x="552" y="335" type="line"/>
      <point x="48" y="335" type="line"/>
      <point x="48" y="375" type="line"/>
      <point x="552" y="375" type="line"/>
    </contour>
    <contour>
      <point x="340" y="161" type="curve" smooth="yes"/>
      <point x="340" y="138"/>
      <point x="323" y="121"/>
      <point x="300" y="121" type="curve" smooth="yes"/>
      <point x="277" y="121"/>
      <point x="260" y="138"/>
      <point x="260" y="161" type="curve" smooth="yes"/>
      <point x="260" y="184"/>
      <point x="277" y="201"/>
      <point x="300" y="201" type="curve" smooth="yes"/>
      <point x="323" y="201"/>
      <point x="340" y="184"/>
    </contour>
  </outline>
</glyph>
<glyph name="oslash" format="1">
  <advance width="480"/>
  <unicode hex="00F8"/>
  <outline>
    <contour>
      <point x="434" y="256" type="line" smooth="yes"/>
      <point x="434" y="102"/>
      <point x="358" y="-10"/>
      <point x="240" y="-10" type="curve" smooth="yes"/>
      <point x="201" y="-10"/>
      <point x="167" y="2"/>
      <point x="138" y="23" type="curve"/>
      <point x="78" y="-95" type="line"/>
      <point x="46" y="-95" type="line"/>
      <point x="116" y="43" type="line"/>
      <point x="71" y="90"/>
      <point x="46" y="165"/>
      <point x="46" y="254" type="curve" smooth="yes"/>
      <point x="46" y="256" type="line" smooth="yes"/>
      <point x="46" y="410"/>
      <point x="122" y="522"/>
      <point x="240" y="522" type="curve" smooth="yes"/>
      <point x="279" y="522"/>
      <point x="313" y="510"/>
      <point x="342" y="489" type="curve"/>
      <point x="402" y="607" type="line"/>
      <point x="434" y="607" type="line"/>
      <point x="364" y="469" type="line"/>
      <point x="409" y="422"/>
      <point x="434" y="347"/>
      <point x="434" y="258" type="curve" smooth="yes"/>
    </contour>
    <contour>
      <point x="395" y="254" type="curve" smooth="yes"/>
      <point x="395" y="256" type="line" smooth="yes"/>
      <point x="395" y="330"/>
      <point x="378" y="393"/>
      <point x="347" y="435" type="curve"/>
      <point x="153" y="54" type="line"/>
      <point x="177" y="33"/>
      <point x="206" y="21"/>
      <point x="240" y="21" type="curve" smooth="yes"/>
      <point x="338" y="21"/>
      <point x="395" y="118"/>
    </contour>
    <contour>
      <point x="326" y="458" type="line"/>
      <point x="303" y="479"/>
      <point x="274" y="491"/>
      <point x="240" y="491" type="curve" smooth="yes"/>
      <point x="142" y="491"/>
      <point x="85" y="394"/>
      <point x="85" y="258" type="curve" smooth="yes"/>
      <point x="85" y="256" type="line" smooth="yes"/>
      <point x="85" y="182"/>
      <point x="102" y="119"/>
      <point x="133" y="77" type="curve"/>
    </contour>
  </outline>
</glyph>
<glyph name="dotlessi" format="1">
  <advance width="212"/>
  <unicode hex="0131"/>
  <outline>
    <contour>
      <point x="126" y="0" type="line"/>
      <point x="86" y="0" type="line"/>
      <point x="86" y="512" type="line"/>
      <point x="126" y="512" type="line"/>
    </contour>
  </outline>
</glyph>
<glyph name="lslash" format="1">
  <advance width="282"/>
  <unicode hex="0142"/>
  <outline>
    <contour>
      <point x="251" y="399" type="line"/>
      <point x="161" y="356" type="line"/>
      <point x="161" y="0" type="line"/>
      <point x="121" y="0" type="line"/>
      <point x="121" y="338" type="line"/>
      <point x="31" y="295" type="line"/>
      <point x="31" y="333" type="line"/>
      <point x="121" y="375" type="line"/>
      <point x="121" y="740" type="line"/>
      <point x="161" y="762" type="line"/>
      <point x="161" y="394" type="line"/>
      <point x="251" y="437" type="line"/>
    </contour>
  </outline>
</glyph>
<glyph name="oe" format="1">
  <advance width="793"/>
  <unicode hex="0153"/>
  <outline>
    <contour>
      <point x="752" y="251" type="line"/>
      <point x="434" y="251" type="line"/>
      <point x="435" y="104"/>
      <point x="496" y="22"/>
      <point x="591" y="22" type="curve" smooth="yes"/>
      <point x="645" y="22"/>
      <point x="684" y="46"/>
      <point x="721" y="87" type="curve"/>
      <point x="745" y="64" type="line"/>
      <point x="707" y="21"/>
      <point x="656" y="-10"/>
      <point x="589" y="-10" type="curve" smooth="yes"/>
      <point x="501" y="-10"/>
      <point x="441" y="47"/>
      <point x="418" y="150" type="curve"/>
      <point x="410" y="150" type="line"/>
      <point x="386" y="53"/>
      <point x="329" y="-10"/>
      <point x="240" y="-10" type="curve" smooth="yes"/>
      <point x="122" y="-10"/>
      <point x="46" y="100"/>
      <point x="46" y="254" type="curve" smooth="yes"/>
      <point x="46" y="256" type="line" smooth="yes"/>
      <point x="46" y="410"/>
      <point x="122" y="522"/>
      <point x="240" y="522" type="curve" smooth="yes"/>
      <point x="329" y="522"/>
      <point x="388" y="458"/>
      <point x="410" y="360" type="curve"/>
      <point x="418" y="360" type="line"/>
      <point x="440" y="458"/>
      <point x="496" y="522"/>
      <point x="578" y="522" type="curve" smooth="yes"/>
      <point x="686" y="522"/>
      <point x="752" y="415"/>
      <point x="752" y="253" type="curve" smooth="yes"/>
    </contour>
    <contour>
      <point x="711" y="283" type="line"/>
      <point x="703" y="414"/>
      <point x="660" y="490"/>
      <point x="578" y="490" type="curve" smooth="yes"/>
      <point x="494" y="490"/>
      <point x="441" y="405"/>
      <point x="435" y="283" type="curve"/>
    </contour>
    <contour>
      <point x="394" y="254" type="curve" smooth="yes"/>
      <point x="394" y="256" type="line" smooth="yes"/>
      <point x="394" y="392"/>
      <point x="338" y="490"/>
      <point x="240" y="490" type="curve" smooth="yes"/>
      <point x="142" y="490"/>
      <point x="86" y="393"/>
      <point x="86" y="258" type="curve" smooth="yes"/>
      <point x="86" y="256" type="line" smooth="yes"/>
      <point x="86" y="120"/>
      <point x="142" y="22"/>
      <point x="240" y="22" type="curve" smooth="yes"/>
      <point x="338" y="22"/>
      <point x="394" y="119"/>
    </contour>
  </outline>
</glyph>
<glyph name="florin" format="1">
  <advance width="420"/>
  <unicode hex="0192"/>
  <outline>
    <contour>
      <point x="410" y="713" type="curve"/>
      <point x="404" y="675" type="line"/>
      <point x="377" y="686"/>
      <point x="354" y="689"/>
      <point x="321" y="689" type="curve" smooth="yes"/>
      <point x="279" y="689"/>
      <point x="244" y="662"/>
      <point x="234" y="604" type="curve" smooth="yes"/>
      <point x="208" y="456" type="line"/>
      <point x="336" y="456" type="line"/>
      <point x="330" y="420" type="line"/>
      <point x="202" y="420" type="line"/>
      <point x="112" y="-90" type="line" smooth="yes"/>
      <point x="99" y="-166"/>
      <point x="54" y="-190"/>
      <point x="-1" y="-190" type="curve" smooth="yes"/>
      <point x="-23" y="-190"/>
      <point x="-45" y="-185"/>
      <point x="-60" y="-180" type="curve"/>
      <point x="-54" y="-143" type="line"/>
      <point x="-36" y="-149"/>
      <point x="-15" y="-153"/>
      <point x="5" y="-153" type="curve" smooth="yes"/>
      <point x="35" y="-153"/>
      <point x="63" y="-134"/>
      <point x="71" y="-86" type="curve" smooth="yes"/>
      <point x="160" y="420" type="line"/>
      <point x="55" y="420" type="line"/>
      <point x="61" y="456" type="line"/>
      <point x="166" y="456" type="line"/>
      <point x="192" y="604" type="line" smooth="yes"/>
      <point x="207" y="690"/>
      <point x="257" y="726"/>
      <point x="328" y="726" type="curve" smooth="yes"/>
      <point x="359" y="726"/>
      <point x="387" y="721"/>
    </contour>
  </outline>
</glyph>
<glyph name="caron" format="1">
  <advance width="500"/>
  <unicode hex="02C7"/>
  <outline>
    <contour>
      <point x="399" y="748" type="line"/>
      <point x="272" y="592" type="line"/>
      <point x="228" y="592" type="line"/>
      <point x="101" y="748" type="line"/>
      <point x="129" y="748" type="line"/>
      <point x="251" y="634" type="line"/>
      <point x="373" y="748" type="line"/>
    </contour>
  </outline>
</glyph>
<glyph name="dotaccent" format="1">
  <advance width="500"/>
  <unicode hex="02D9"/>
  <outline>
    <contour>
      <point x="281" y="592" type="line"/>
      <point x="219" y="592" type="line"/>
      <point x="219" y="667" type="line"/>
      <point x="281" y="667" type="line"/>
    </contour>
  </outline>
</glyph>
<glyph name="hungarumlaut" format="1">
  <advance width="500"/>
  <unicode hex="02DD"/>
  <outline>
    <contour>
      <point x="414" y="743" type="line"/>
      <point x="281" y="592" type="line"/>
      <point x="252" y="592" type="line"/>
      <point x="347" y="743" type="line"/>
    </contour>
    <contour>
      <point x="252" y="743" type="line"/>
      <point x="119" y="592" type="line"/>
      <point x="90" y="592" type="line"/>
      <point x="185" y="743" type="line"/>
    </contour>
  </outline>
</glyph>
<glyph name="quoteleft" format="1">
  <advance width="170"/>
  <unicode hex="2018"/>
  <unicode hex="02BB"/>
  <outline>
    <contour>
      <point x="124" y="525" type="line"/>
      <point x="95" y="525" type="line"/>
      <point x="37" y="720" type="line"/>
      <point x="89" y="720" type="line"/>
    </contour>
  </outline>
</glyph>
<glyph name="quotedblleft" format="1">
  <advance width="300"/>
  <unicode hex="201C"/>
  <outline>
    <contour>
      <point x="254" y="525" type="line"/>
      <point x="225" y="525" type="line"/>
      <point x="167" y="720" type="line"/>
      <point x="219" y="720" type="line"/>
    </contour>
    <contour>
      <point x="124" y="525" type="line"/>
      <point x="95" y="525" type="line"/>
      <point x="37" y="720" type="line"/>
      <point x="89" y="720" type="line"/>
    </contour>
  </outline>
</glyph>
<glyph name="daggerdbl" format="1">
  <advance width="448"/>
  <unicode hex="2021"/>
  <outline>
    <contour>
      <point x="399" y="185" type="line"/>
      <point x="237" y="197" type="line"/>
      <point x="249" y="0" type="line"/>
      <point x="199" y="0" type="line"/>
      <point x="211" y="197" type="line"/>
      <point x="49" y="185" type="line"/>
      <point x="49" y="226" type="line"/>
      <point x="211" y="215" type="line"/>
      <point x="200" y="360" type="line"/>
      <point x="211" y="505" type="line"/>
      <point x="49" y="494" type="line"/>
      <point x="49" y="535" type="line"/>
      <point x="211" y="523" type="line"/>
      <point x="199" y="720" type="line"/>
      <point x="249" y="720" type="line"/>
      <point x="237" y="523" type="line"/>
      <point x="399" y="535" type="line"/>
      <point x="399" y="494" type="line"/>
      <point x="237" y="505" type="line"/>
      <point x="248" y="360" type="line"/>
      <point x="237" y="215" type="line"/>
      <point x="399" y="226" type="line"/>
    </contour>
  </outline>
</glyph>
<glyph name="ellipsis" format="1">
  <advance width="550"/>
  <unicode hex="2026"/>
  <outline>
    <contour>
      <point x="500" y="28" type="curve" smooth="yes"/>
      <point x="500" y="8"/>
      <point x="485" y="-7"/>
      <point x="465" y="-7" type="curve" smooth="yes"/>
      <point x="445" y="-7"/>
      <point x="430" y="8"/>
      <point x="430" y="28" type="curve" smooth="yes"/>
      <point x="430" y="48"/>
      <point x="445" y="63"/>
      <point x="465" y="63" type="curve" smooth="yes"/>
      <point x="485" y="63"/>
      <point x="500" y="48"/>
    </contour>
    <contour>
      <point x="310" y="28" type="curve" smooth="yes"/>
      <point x="310" y="8"/>
      <point x="295" y="-7"/>
      <point x="275" y="-7" type="curve" smooth="yes"/>
      <point x="255" y="-7"/>
      <point x="240" y="8"/>
      <point x="240" y="28" type="curve" smooth="yes"/>
      <point x="240" y="48"/>
      <point x="255" y="63"/>
      <point x="275" y="63" type="curve" smooth="yes"/>
      <point x="295" y="63"/>
      <point x="310" y="48"/>
    </contour>
    <contour>
      <point x="120" y="28" type="curve" smooth="yes"/>
      <point x="120" y="8"/>
      <point x="105" y="-7"/>
      <point x="85" y="-7" type="curve" smooth="yes"/>
      <point x="65" y="-7"/>
      <point x="50" y="8"/>
      <point x="50" y="28" type="curve" smooth="yes"/>
      <point x="50" y="48"/>
      <point x="65" y="63"/>
      <point x="85" y="63" type="curve" smooth="yes"/>
      <point x="105" y="63"/>
      <point x="120" y="48"/>
    </contour>
  </outline>
</glyph>
<glyph name="guilsinglleft" format="1">
  <advance width="257"/>
  <unicode hex="2039"/>
  <outline>
    <contour>
      <point x="221" y="80" type="line"/>
      <point x="187" y="80" type="line"/>
      <point x="32" y="256" type="line"/>
      <point x="187" y="432" type="line"/>
      <point x="221" y="432" type="line"/>
      <point x="84" y="256" type="line"/>
    </contour>
  </outline>
</glyph>
<glyph name="Euro" format="1">
  <advance width="570"/>
  <unicode hex="20AC"/>
  <outline>
    <contour>
      <point x="526" y="200" type="line"/>
      <point x="496" y="78"/>
      <point x="429" y="-12"/>
      <point x="304" y="-12" type="curve" smooth="yes"/>
      <point x="148" y="-12"/>
      <point x="57" y="135"/>
      <point x="57" y="358" type="curve" smooth="yes"/>
      <point x="57" y="360" type="line" smooth="yes"/>
      <point x="57" y="583"/>
      <point x="147" y="732"/>
      <point x="306" y="732" type="curve" smooth="yes"/>
      <point x="419" y="732"/>
      <point x="491" y="658"/>
      <point x="521" y="537" type="curve"/>
      <point x="483" y="523" type="line"/>
      <point x="454" y="634"/>
      <point x="399" y="697"/>
      <point x="306" y="697" type="curve" smooth="yes"/>
      <point x="191" y="697"/>
      <point x="124" y="598"/>
      <point x="105" y="453" type="curve"/>
      <point x="342" y="453" type="line"/>
      <point x="342" y="415" type="line"/>
      <point x="101" y="415" type="line"/>
      <point x="100" y="398"/>
      <point x="99" y="380"/>
      <point x="99" y="362" type="curve" smooth="yes"/>
      <point x="99" y="360" type="line" smooth="yes"/>
      <point x="99" y="338"/>
      <point x="100" y="316"/>
      <point x="102" y="295" type="curve"/>
      <point x="342" y="295" type="line"/>
      <point x="342" y="257" type="line"/>
      <point x="106" y="257" type="line"/>
      <point x="127" y="118"/>
      <point x="194" y="23"/>
      <point x="306" y="23" type="curve" smooth="yes"/>
      <point x="405" y="23"/>
      <point x="462" y="100"/>
      <point x="488" y="212" type="curve"/>
    </contour>
  </outline>
</glyph>
<glyph name="radical" format="1">
  <advance width="550"/>
  <unicode hex="221A"/>
  <outline>
    <contour>
      <point x="515" y="720" type="line"/>
      <point x="246" y="-3" type="line"/>
      <point x="201" y="-3" type="line"/>
      <point x="46" y="340" type="line"/>
      <point x="91" y="340" type="line"/>
      <point x="224" y="35" type="line"/>
      <point x="471" y="720" type="line"/>
    </contour>
  </outline>
</glyph>
<glyph name="bullet" format="1">
  <advance width="340"/>
  <outline>
    <contour>
      <point x="277" y="373" type="curve" smooth="yes"/>
      <point x="277" y="313"/>
      <point x="230" y="266"/>
      <point x="170" y="266" type="curve" smooth="yes"/>
      <point x="110" y="266"/>
      <point x="63" y="313"/>
      <point x="63" y="373" type="curve" smooth="yes"/>
      <point x="63" y="433"/>
      <point x="110" y="480"/>
      <point x="170" y="480" type="curve" smooth="yes"/>
      <point x="230" y="480"/>
      <point x="277" y="433"/>
    </contour>
  </outline>
</glyph>
